<?xml version="1.0" standalone="no"?>
<!DOCTYPE svg PUBLIC "-//W3C//DTD SVG 20010904//EN"
 "http://www.w3.org/TR/2001/REC-SVG-20010904/DTD/svg10.dtd">
<svg version="1.0" xmlns="http://www.w3.org/2000/svg"
 width="500.000000pt" height="500.000000pt" viewBox="0 0 500.000000 500.000000"
 preserveAspectRatio="xMidYMid meet">

<g transform="translate(0.000000,500.000000) scale(0.100000,-0.100000)"
fill="#000000" stroke="none">
<path d="M1017 4573 c-3 -5 -8 -56 -12 -114 l-7 -106 -78 5 c-67 4 -83 1 -117
-17 -46 -26 -82 -76 -89 -122 -10 -67 -144 -1719 -144 -1772 0 -63 25 -108 80
-145 34 -23 36 -23 240 -16 340 11 617 -31 950 -144 193 -66 191 -65 229 -134
38 -70 111 -145 174 -182 159 -92 373 -89 526 8 62 40 134 117 167 181 27 51
33 56 104 83 189 74 412 134 625 169 86 14 170 18 387 18 263 0 278 1 304 21
53 39 68 70 71 142 2 37 -29 457 -70 933 -71 844 -73 868 -97 902 -14 20 -42
46 -63 58 -34 18 -50 21 -117 17 l-78 -5 -9 111 -8 111 -155 3 c-510 10 -948
-135 -1249 -414 l-81 -76 -67 63 c-251 234 -583 376 -985 419 -112 12 -425 14
-431 3z m387 -83 c401 -38 742 -181 978 -409 l78 -76 0 -888 c0 -488 -2 -887
-5 -887 -2 0 -35 19 -72 42 -290 178 -717 305 -1135 338 -79 6 -181 14 -228
18 l-86 7 57 675 c32 371 64 758 73 860 9 102 19 218 22 258 l6 72 102 0 c55
0 150 -5 210 -10z m2510 -62 c3 -40 13 -156 22 -258 36 -417 130 -1535 129
-1537 -1 -1 -81 -7 -179 -13 -498 -28 -951 -152 -1269 -348 -37 -23 -70 -42
-72 -42 -3 0 -5 399 -5 888 l0 887 84 81 c203 195 487 328 816 383 150 25 178
27 341 29 l127 2 6 -72z m-2928 -161 c2 -2 -28 -376 -66 -833 -39 -456 -70
-843 -70 -860 l0 -31 208 -6 c524 -14 1007 -151 1347 -382 l95 -64 96 65 c337
229 823 366 1347 381 l207 6 0 31 c0 32 -125 1537 -136 1638 l-6 56 57 7 c78
10 120 -9 134 -62 6 -21 43 -428 82 -905 77 -929 76 -912 25 -936 -13 -6 -97
-8 -222 -4 -276 7 -447 -12 -719 -79 -123 -31 -278 -81 -394 -129 -63 -25 -68
-29 -104 -96 -51 -93 -97 -138 -186 -182 -72 -36 -79 -37 -180 -37 -99 0 -111
2 -174 32 -86 41 -164 118 -197 195 -24 56 -27 59 -95 87 -174 73 -422 143
-645 183 -108 19 -162 22 -409 23 l-283 1 -24 27 c-13 16 -24 38 -24 50 -1 81
142 1740 152 1772 17 53 47 68 122 60 33 -3 61 -6 62 -8z"/>
<path d="M789 1326 c-140 -37 -220 -137 -222 -275 -1 -111 53 -185 155 -216
104 -31 222 -10 286 51 l37 34 -49 43 -50 44 -34 -24 c-48 -32 -111 -31 -149
1 -24 21 -28 32 -27 74 1 57 30 112 69 130 45 21 100 15 134 -14 l30 -25 56
42 c30 23 55 48 55 55 0 23 -77 72 -131 83 -63 14 -102 13 -160 -3z"/>
<path d="M1294 1288 c-15 -24 -83 -130 -152 -237 -68 -107 -126 -201 -129
-208 -4 -10 14 -13 80 -13 l85 0 26 45 27 45 94 0 94 0 7 -45 6 -45 84 0 c82
0 84 1 79 23 -3 12 -29 123 -58 247 l-54 225 -81 3 -81 3 -27 -43z m91 -200
l7 -48 -46 0 -47 0 33 59 c36 65 42 63 53 -11z"/>
<path d="M1726 1319 c-6 -17 -96 -471 -96 -482 0 -4 37 -7 82 -5 l83 3 13 63
c19 84 38 84 87 -3 l36 -65 84 0 c47 0 85 2 85 4 0 3 -18 35 -40 73 l-39 68
34 17 c92 48 128 186 68 266 -40 53 -84 66 -245 70 -119 4 -149 2 -152 -9z
m244 -139 c26 -26 25 -46 -5 -75 -19 -20 -35 -25 -71 -25 l-47 0 7 52 c4 28 9
55 12 60 11 17 84 8 104 -12z"/>
<path d="M2201 1280 c-18 -82 -20 -80 59 -80 68 0 70 -1 65 -22 -13 -58 -65
-323 -65 -335 0 -11 17 -13 82 -11 l82 3 36 180 36 180 72 3 c69 3 72 4 78 30
3 15 10 41 14 59 4 17 5 34 2 37 -3 3 -105 6 -228 6 l-222 0 -11 -50z"/>
<path d="M2696 1087 c-86 -134 -156 -247 -156 -250 0 -4 38 -7 84 -7 l84 0 26
45 27 45 94 0 94 0 7 -45 6 -45 84 0 c46 0 84 3 84 8 -1 4 -27 115 -58 247
l-58 240 -81 3 -81 3 -156 -244z m219 1 l7 -48 -47 0 -47 0 27 48 c16 26 30
51 33 55 8 16 20 -8 27 -55z"/>
<path d="M3256 1319 c-6 -16 -96 -470 -96 -481 0 -5 38 -8 85 -8 68 0 85 3 85
15 0 7 5 37 11 65 15 72 38 68 84 -15 l37 -65 84 0 c46 0 84 3 84 6 0 3 -16
33 -35 65 -19 33 -35 64 -35 69 0 5 13 16 29 25 93 48 126 200 59 272 -42 46
-82 56 -240 61 -119 4 -149 2 -152 -9z m244 -139 c26 -26 25 -46 -5 -75 -19
-19 -35 -25 -71 -25 l-46 0 7 46 c3 26 9 53 12 60 8 22 79 18 103 -6z"/>
<path d="M3785 1318 c-7 -19 -95 -459 -95 -475 0 -11 18 -13 82 -11 l82 3 48
235 c26 129 47 241 48 248 0 9 -22 12 -80 12 -55 0 -82 -4 -85 -12z"/>
<path d="M3986 1098 c-25 -128 -46 -241 -46 -250 0 -17 16 -18 204 -18 l203 0
6 33 c3 17 9 47 13 65 l7 32 -125 0 -125 0 5 30 4 30 108 0 108 0 7 46 c3 26
9 53 12 60 4 11 -15 14 -102 14 -106 0 -107 0 -101 23 3 12 6 25 6 30 0 4 54
7 119 7 133 0 126 -4 137 80 l7 50 -200 0 -200 0 -47 -232z"/>
<path d="M2595 630 c-8 -14 3 -30 21 -30 8 0 14 9 14 20 0 21 -24 28 -35 10z"/>
<path d="M2010 597 c0 -32 -1 -33 -35 -29 -54 6 -85 -19 -85 -68 0 -61 25 -80
100 -78 l60 2 0 103 c0 96 -1 103 -20 103 -16 0 -20 -7 -20 -33z m-2 -100 c3
-32 0 -37 -24 -43 -34 -9 -58 6 -62 39 -4 32 31 59 62 48 15 -6 22 -18 24 -44z"/>
<path d="M1240 520 c0 -93 1 -100 20 -100 17 0 20 7 20 40 l0 40 51 0 c66 0
62 24 -4 28 -45 3 -47 5 -47 33 0 29 1 29 55 29 42 0 55 3 55 15 0 12 -15 15
-75 15 l-75 0 0 -100z"/>
<path d="M3030 605 c0 -8 9 -15 20 -15 18 0 20 -7 20 -85 0 -78 2 -85 20 -85
19 0 20 7 20 100 l0 100 -40 0 c-29 0 -40 -4 -40 -15z"/>
<path d="M3197 608 c-28 -22 -32 -63 -7 -88 18 -18 30 -21 66 -17 48 5 51 2
28 -31 -11 -16 -25 -22 -55 -22 -28 0 -39 -4 -39 -15 0 -11 11 -15 43 -15 65
1 97 36 97 108 0 56 -31 92 -79 92 -20 0 -45 -6 -54 -12z m74 -18 c26 -15 24
-49 -3 -59 -29 -11 -58 4 -58 29 0 10 8 24 18 29 21 13 20 13 43 1z"/>
<path d="M3406 604 c-9 -8 -16 -31 -16 -49 0 -42 27 -59 81 -52 43 6 46 2 23
-31 -11 -16 -25 -22 -55 -22 -28 0 -39 -4 -39 -15 0 -11 12 -15 45 -15 67 0
95 31 95 103 0 43 -5 58 -23 75 -28 26 -88 30 -111 6z m75 -14 c26 -15 24 -49
-3 -59 -29 -11 -58 4 -58 29 0 10 8 24 18 29 21 13 20 13 43 1z"/>
<path d="M3617 602 c-23 -25 -21 -65 3 -87 15 -13 30 -16 60 -12 29 4 40 2 40
-8 0 -25 -31 -45 -71 -45 -28 0 -39 -4 -39 -15 0 -20 78 -20 107 0 33 23 48
79 34 126 -7 21 -20 43 -31 49 -30 16 -85 12 -103 -8z m89 -23 c19 -21 18 -21
-4 -39 -16 -14 -29 -17 -45 -11 -28 11 -34 41 -11 58 25 18 38 16 60 -8z"/>
<path d="M2340 590 c0 -11 -7 -20 -15 -20 -8 0 -15 -5 -15 -10 0 -6 7 -13 15
-16 10 -4 15 -21 15 -53 0 -26 5 -52 12 -59 18 -18 68 -15 68 4 0 10 -6 14
-14 11 -23 -9 -38 18 -34 60 2 30 7 37 21 35 10 -2 17 3 17 13 0 8 -9 15 -20
15 -13 0 -20 7 -20 20 0 11 -7 20 -15 20 -8 0 -15 -9 -15 -20z"/>
<path d="M1460 550 c-12 -12 -20 -33 -20 -53 0 -70 85 -103 135 -52 30 30 32
64 4 99 -26 33 -88 37 -119 6z m90 -20 c23 -23 24 -33 10 -61 -12 -22 -59 -26
-78 -7 -19 19 -14 55 10 72 29 20 34 20 58 -4z"/>
<path d="M1670 493 c0 -58 3 -73 15 -73 11 0 15 12 15 49 0 40 4 53 22 65 37
26 58 5 58 -59 0 -48 2 -55 20 -55 17 0 20 7 20 53 0 79 -17 97 -90 95 l-60
-2 0 -73z"/>
<path d="M2133 564 c-7 -3 -10 -11 -7 -19 4 -10 12 -11 35 -3 22 7 33 7 44 -2
23 -19 18 -30 -16 -30 -43 0 -69 -17 -69 -44 0 -35 20 -45 84 -45 l59 1 -7 61
c-3 33 -11 66 -17 73 -11 13 -80 18 -106 8z m87 -87 c0 -19 -21 -37 -42 -37
-24 0 -35 29 -17 41 21 13 59 11 59 -4z"/>
<path d="M2600 495 c0 -60 3 -75 15 -75 12 0 15 15 15 75 0 60 -3 75 -15 75
-12 0 -15 -15 -15 -75z"/>
<path d="M2710 493 c0 -58 3 -73 15 -73 11 0 15 12 15 45 0 52 27 89 57 78 27
-10 33 -23 33 -75 0 -36 4 -48 15 -48 12 0 15 13 15 59 0 79 -13 91 -91 89
l-59 -2 0 -73z"/>
</g>
</svg>
